PathFileType	4	(X/Y/Z)	/Users/itak/Documents/Research/Walk-IL/dataset/trc/00296_00010.trc
DataRate	CameraRate	NumFrames	NumMarkers	Units	OrigDataRate	OrigDataStartFrame	OrigNumFrames
100.000000	100.000000	4	53	mm	100.000000	501	669
Frame#	Time	RPSI			LPSI			L3			STRN			T10			C7			CLAV			RBAK			LBAK			LSHO			LUPA			LAEL			LAOL			LWTS			LWPS			LFRA			LIFD			LHPS			LHTS			RSHO			RUPA			RAEL			RAOL			RWTS			RWPS			RFRA			RIFD			RHTS			RHPS			RBHD			LFHD			RFHD			LBHD			RHIP			RASI			LASI			LKNE			LTHI			LANK			LTIP			LTOE			LMT1			LMT5			LHEE			RKNE			RTHI			RANK			RTIP			RTOE			RMT1			RMT5			RHEE			LHIP			
		X1	Y1	Z1	X2	Y2	Z2	X3	Y3	Z3	X4	Y4	Z4	X5	Y5	Z5	X6	Y6	Z6	X7	Y7	Z7	X8	Y8	Z8	X9	Y9	Z9	X10	Y10	Z10	X11	Y11	Z11	X12	Y12	Z12	X13	Y13	Z13	X14	Y14	Z14	X15	Y15	Z15	X16	Y16	Z16	X17	Y17	Z17	X18	Y18	Z18	X19	Y19	Z19	X20	Y20	Z20	X21	Y21	Z21	X22	Y22	Z22	X23	Y23	Z23	X24	Y24	Z24	X25	Y25	Z25	X26	Y26	Z26	X27	Y27	Z27	X28	Y28	Z28	X29	Y29	Z29	X30	Y30	Z30	X31	Y31	Z31	X32	Y32	Z32	X33	Y33	Z33	X34	Y34	Z34	X35	Y35	Z35	X36	Y36	Z36	X37	Y37	Z37	X38	Y38	Z38	X39	Y39	Z39	X40	Y40	Z40	X41	Y41	Z41	X42	Y42	Z42	X43	Y43	Z43	X44	Y44	Z44	X45	Y45	Z45	X46	Y46	Z46	X47	Y47	Z47	X48	Y48	Z48	X49	Y49	Z49	X50	Y50	Z50	X51	Y51	Z51	X52	Y52	Z52	X53	Y53	Z53	

502	5.01	407.5449829101562	968.15576171875	482.5831604003906	573.5726318359375	969.6333618164062	537.4847412109375	497.5465087890625	1029.072509765625	527.4492797851562	402.5314331054688	1210.04248046875	746.116943359375	508.6412963867188	1141.737548828125	507.752197265625	499.4718627929688	1389.5537109375	543.8628540039062	426.92041015625	1309.553833007812	684.9657592773438	459.8146667480469	1246.582275390625	469.509765625	600.6712036132812	1356.177856445312	574.1973876953125	608.4483642578125	1366.1611328125	677.0549926757812	690.8194580078125	1252.615600585938	684.7605590820312	714.1179809570312	1055.747680664062	713.9199829101562	678.8836669921875	1026.553100585938	639.1724853515625	642.6687622070312	882.1525268554688	846.6873168945312	710.0028686523438	859.0188598632812	836.062255859375	718.5345458984375	964.7898559570312	758.4400024414062	632.2225952148438	717.077392578125	927.1909790039062	700.4645385742188	780.5352783203125	875.73681640625	650.621826171875	803.5154418945312	912.456298828125	330.6083374023438	1362.685791015625	528.1607055664062	281.7510986328125	1308.051147460938	484.0393676757812	285.8034057617188	1060.766479492188	391.5790405273438	366.0427551269531	1047.32373046875	439.8516235351562	260.7574768066406	814.7269287109375	421.5412292480469	248.7752838134766	837.0834350585938	340.129150390625	264.1230163574219	994.1788940429688	377.4581604003906	285.9935302734375	642.369140625	359.2705383300781	243.5189514160156	700.7169189453125	384.5466613769531	245.8624877929688	725.449462890625	317.9093322753906	414.4002380371094	1560.838623046875	556.969482421875	393.5262145996094	1547.876098632812	769.2313842773438	322.5717163085938	1540.178833007812	706.101806640625	525.58251953125	1562.515258789062	653.52197265625	282.9860229492188	913.864990234375	550.3831176757812	321.1724548339844	914.555419921875	683.0682373046875	566.8458862304688	910.7837524414062	743.4771728515625	646.5116577148438	462.5463562011719	552.4421997070312	652.4544067382812	599.6710815429688	594.3935546875	701.634765625	124.258674621582	235.3370208740234	686.6741333007812	292.4774475097656	391.5988464355469	599.51171875	31.09825706481934	381.148681640625	573.052978515625	49.05230331420898	313.4994506835938	685.61376953125	45.8709602355957	328.9921569824219	653.741943359375	157.9633483886719	189.327392578125	312.7542724609375	471.6016540527344	736.5042114257812	265.9226684570312	719.3702392578125	649.3818359375	387.1388244628906	42.09269332885742	793.00390625	327.4048767089844	354.074462890625	781.417724609375	340.0512390136719	52.94989395141602	986.9910278320312	402.6936340332031	40.44671249389648	956.7073364257812	318.8226623535156	36.21781539916992	875.3524780273438	453.8812866210938	33.68044662475586	773.4857788085938	650.4203491210938	917.4968872070312	625.0162963867188	
503	5.02	405.6900329589844	970.009765625	491.6054992675781	571.0524291992188	971.0693969726562	548.6720581054688	495.2408447265625	1031.051879882812	537.0946655273438	397.0923767089844	1212.939453125	754.1885986328125	506.51611328125	1143.597900390625	517.475830078125	496.9420166015625	1391.418090820312	552.5801391601562	422.7057189941406	1312.22412109375	692.9310302734375	458.2122497558594	1248.208129882812	478.5135803222656	597.5889892578125	1358.348510742188	584.4814453125	603.9203491210938	1368.836547851562	687.3392944335938	686.3153686523438	1255.624755859375	696.5488891601562	709.5667114257812	1057.823486328125	724.7557983398438	674.8118286132812	1030.141723632812	649.2998046875	637.44287109375	877.4739990234375	849.9696655273438	705.2992553710938	855.9832153320312	839.8131713867188	713.7666625976562	964.9705200195312	766.6594848632812	628.1614379882812	709.1433715820312	923.1239624023438	696.177001953125	775.641845703125	875.6275634765625	645.596435546875	796.3319702148438	912.6786499023438	328.3222961425781	1364.607055664062	534.7002563476562	280.0130920410156	1309.697265625	490.4006958007812	284.6634521484375	1061.57177734375	400.4156799316406	364.7146606445312	1048.698120117188	449.2037658691406	258.1134033203125	816.2875366210938	436.1713256835938	246.9959564208984	836.292236328125	353.9873962402344	263.0558471679688	994.319580078125	387.4672241210938	283.3014831542969	642.0855712890625	379.9999084472656	240.8657989501953	701.3400268554688	402.7422485351562	243.9704742431641	723.80029296875	335.3177490234375	410.8645935058594	1562.817749023438	564.8052978515625	388.3482360839844	1549.472412109375	776.8438110351562	317.9081420898438	1541.741943359375	713.1497802734375	521.2843017578125	1564.571411132812	662.2362060546875	279.8539123535156	916.0009765625	557.2472534179688	315.9364318847656	917.1825561523438	690.5845947265625	560.6533813476562	913.1947631835938	754.1780395507812	643.35546875	462.0274353027344	570.2822265625	648.4810791015625	599.7034912109375	610.44873046875	703.189453125	132.3155059814453	245.36962890625	685.9678344726562	295.7632751464844	405.9169006347656	599.6207885742188	30.58321762084961	382.0327758789062	573.6571655273438	51.92722320556641	316.0787353515625	686.2314453125	47.64678573608398	333.4500732421875	655.4539794921875	168.2095642089844	201.0747375488281	309.7003784179688	472.5785827636719	742.6913452148438	262.2438049316406	720.7322387695312	656.2449340820312	386.87158203125	42.35851669311523	793.321533203125	325.1651916503906	354.4781799316406	786.9044799804688	339.8409423828125	51.29015731811523	987.9447631835938	402.7679748535156	40.03609848022461	957.07763671875	318.9532165527344	36.06505584716797	875.854248046875	453.4879150390625	33.90669250488281	773.4451293945312	646.3615112304688	919.0775756835938	637.4288330078125	
504	5.03	403.52880859375	971.6670532226562	500.3437194824219	568.2857666015625	972.4308471679688	559.2909545898438	492.6672058105469	1033.022216796875	546.408203125	391.7096862792969	1215.680053710938	762.0765380859375	504.1964111328125	1145.42724609375	527.000244140625	494.45654296875	1393.247802734375	561.200439453125	418.5759582519531	1314.771606445312	700.8170776367188	456.6059265136719	1249.796752929688	487.3764343261719	594.5347900390625	1360.452514648438	594.68505859375	599.3712768554688	1371.439453125	697.5416870117188	681.7306518554688	1258.565673828125	708.4456176757812	704.9288330078125	1059.939086914062	735.7510375976562	671.026123046875	1033.689208984375	659.5150756835938	632.3735961914062	872.88623046875	852.8579711914062	700.7815551757812	853.1719970703125	843.4735107421875	709.0528564453125	965.2774047851562	774.9547729492188	624.2772216796875	701.5151977539062	918.0274047851562	692.1669921875	771.05322265625	875.1275634765625	640.7479248046875	789.2802734375	912.243896484375	326.1100769042969	1366.48828125	541.1798706054688	278.3058471679688	1311.329223632812	496.6953430175781	283.38818359375	1062.388305664062	409.1171264648438	363.3299255371094	1050.104125976562	458.3075561523438	255.1766510009766	818.1275024414062	451.1095886230469	244.7569732666016	835.5814819335938	368.2089538574219	261.8077087402344	994.4816284179688	397.4621887207031	279.8465270996094	642.1050415039062	401.4659118652344	237.6134185791016	702.3239135742188	421.5763854980469	241.3978271484375	722.3175659179688	353.3995361328125	407.4057312011719	1564.739990234375	572.5697021484375	383.2345581054688	1550.973510742188	784.3683471679688	313.2870178222656	1543.21923828125	720.1178588867188	517.0504150390625	1566.5556640625	670.8834838867188	276.5310668945312	917.8948974609375	564.0819091796875	310.8387145996094	919.5962524414062	697.9766235351562	554.6343383789062	915.7122192382812	764.50537109375	640.1721801757812	461.4001159667969	588.8296508789062	644.4998779296875	599.7174072265625	626.7705688476562	704.786865234375	140.6333923339844	256.81005859375	685.120361328125	298.7633056640625	421.4266052246094	599.6289672851562	29.83026695251465	383.1455993652344	574.4598999023438	55.22948455810547	319.1276550292969	686.9052124023438	49.84283447265625	338.5562744140625	657.2839965820312	178.5867614746094	214.2406158447266	306.9443359375	473.1944274902344	748.29541015625	258.7469177246094	721.8189086914062	662.9869995117188	386.723876953125	42.54645919799805	793.5755615234375	323.1158752441406	354.6324768066406	791.822265625	339.6771240234375	49.75078201293945	988.7979125976562	402.8233947753906	39.61141586303711	957.4009399414062	319.0980834960938	35.96836853027344	876.265380859375	453.2112426757812	34.06083297729492	773.4100341796875	642.15869140625	920.6952514648438	649.2297973632812	
505	5.04	401.103759765625	973.1478271484375	508.7977294921875	565.3231201171875	973.6535034179688	569.3489990234375	489.8531188964844	1034.936157226562	555.4234008789062	386.4117126464844	1218.198608398438	769.7813720703125	501.7059631347656	1147.176025390625	536.2962646484375	492.0043029785156	1394.999267578125	569.7116088867188	414.4740600585938	1317.1318359375	708.5845947265625	454.9788818359375	1251.305541992188	496.0689086914062	591.51318359375	1362.429321289062	604.76708984375	594.8358154296875	1373.898803710938	707.6243896484375	677.0845947265625	1261.337768554688	720.3623657226562	700.1777954101562	1062.014526367188	746.86669921875	667.5259399414062	1037.080932617188	669.78125	627.4813232421875	868.47900390625	855.472412109375	696.4429931640625	850.5933227539062	847.1346435546875	704.3765869140625	965.6660766601562	783.3399047851562	620.5781860351562	694.338623046875	912.0104370117188	688.4331665039062	766.8202514648438	874.3709716796875	636.071533203125	782.4498901367188	911.2196044921875	323.9584350585938	1368.282348632812	547.6082153320312	276.6102905273438	1312.898193359375	502.9288635253906	281.9774475097656	1063.155883789062	417.6647033691406	361.8846435546875	1051.483032226562	467.1526184082031	251.9763488769531	820.2299194335938	466.2930297851562	242.0583190917969	834.9610595703125	382.7531433105469	260.3667297363281	994.6321411132812	407.42333984375	275.6298828125	642.4738159179688	423.5046997070312	233.7779846191406	703.6864013671875	440.9302062988281	238.1354522705078	721.0589599609375	372.0574645996094	404.0156860351562	1566.577514648438	580.25830078125	378.1976928710938	1552.348754882812	791.8031616210938	308.7169494628906	1544.578002929688	727.0070190429688	512.8816528320312	1568.441528320312	679.4520263671875	273.0875854492188	919.5801391601562	570.9025268554688	305.932861328125	921.7721557617188	705.2462158203125	548.84912109375	918.20703125	774.4597778320312	636.9019165039062	460.6901245117188	607.9939575195312	640.5069580078125	599.7086791992188	643.2783203125	706.3737182617188	149.1139831542969	269.6956787109375	684.0883178710938	301.4695739746094	438.0727844238281	599.5286254882812	28.86166572570801	384.5143432617188	575.4803466796875	59.00839233398438	322.7574768066406	687.6239624023438	52.49209594726562	344.3885192871094	659.1823120117188	189.0157318115234	228.8424377441406	304.4464416503906	473.4933776855469	753.316650390625	255.4050598144531	722.6504516601562	669.5601806640625	386.68408203125	42.65937042236328	793.7830810546875	321.2082214355469	354.5462341308594	796.093017578125	339.5757446289062	48.33880615234375	989.5635375976562	402.8727722167969	39.175537109375	957.6923217773438	319.237060546875	35.90329742431641	876.5980224609375	453.0363464355469	34.16862106323242	773.390380859375	637.8652954101562	922.2351684570312	660.407958984375	
